PathFileType	4	(X/Y/Z)	Patient4_TMGait_0pt2_03_right_21.trc.trc
DataRate	CameraRate	NumFrames	NumMarkers	Units	OrigDataRate	OrigDataStartFrame	OrigNumFrames
48.780487804878	48.780487804878	4	33	mm	48.780487804878	36	       141
Frame#	Time	Sacral			L.Shoulder			Chest			R.Shoulder			Neck			R.ASIS			L.ASIS			R.Thigh.Superior			R.Thigh.Lateral			R.Thigh.Inferior			R.Patella			L.Thigh.Superior			L.Thigh.Lateral			L.Thigh.Inferior			L.Patella			L.Shank.Superior			L.Shank.Lateral			L.Shank.Inferior			R.Shank.Superior			R.Shank.Lateral			R.Shank.Inferior			R.Heel			R.Midfoot.Superior			R.Midfoot.Lateral			R.Toe			L.Heel			L.Midfoot.Lateral			L.Midfoot.Superior			L.Toe			L.Elbow			L.Wrist			R.Elbow			R.Wrist			
		X1	Y1	Z1	X2	Y2	Z2	X3	Y3	Z3	X4	Y4	Z4	X5	Y5	Z5	X6	Y6	Z6	X7	Y7	Z7	X8	Y8	Z8	X9	Y9	Z9	X10	Y10	Z10	X11	Y11	Z11	X12	Y12	Z12	X13	Y13	Z13	X14	Y14	Z14	X15	Y15	Z15	X16	Y16	Z16	X17	Y17	Z17	X18	Y18	Z18	X19	Y19	Z19	X20	Y20	Z20	X21	Y21	Z21	X22	Y22	Z22	X23	Y23	Z23	X24	Y24	Z24	X25	Y25	Z25	X26	Y26	Z26	X27	Y27	Z27	X28	Y28	Z28	X29	Y29	Z29	X30	Y30	Z30	X31	Y31	Z31	X32	Y32	Z32	X33	Y33	Z33	

36	45.737500000000	884.512508452029	1016.212536132952	521.721845797324	1110.208259473488	1439.622554574017	378.703987290834	1172.266516726103	1368.975931829908	555.542014712948	1057.010165570636	1447.708653305450	707.317991592597	1044.678323496491	1497.684758130106	528.323996475442	1093.638582544736	945.026945380499	671.828404808516	1118.113633758188	964.445147121606	399.314392096054	1140.256930695866	743.252117648979	633.547399003695	1061.063083663121	633.435441431496	693.647201123526	1136.651247804746	582.138991294717	610.912425768482	1138.940206175541	496.277030060721	616.659666355138	1120.683686889752	733.127440687408	412.159437922373	1008.438771735068	630.781320943793	326.716782646047	1084.568889293007	543.190612186283	388.222056925185	1073.872383964692	472.668609334938	387.594414732397	1029.542484738272	411.081546614016	371.624053387415	917.864140192485	325.246654180876	308.060186043722	942.270192413500	197.463582075749	363.590571192406	1111.935652381856	406.978721601610	627.096535768854	1046.270878388428	305.011155862563	698.234089137482	1082.397889414684	208.229627674959	632.301661272391	945.495167027297	44.184204100018	621.650933925334	1120.016318617364	97.510921876127	638.311459154094	1036.856867192521	38.031935382688	686.378258728278	1242.714332722452	45.490817265600	651.935498503011	786.455715132091	60.474566977885	387.232190675557	862.414565578639	48.621446738710	310.089079392724	951.068044908220	100.891250196308	338.869128468958	1072.901653248591	38.230696251646	313.046932294989	1225.115346728351	1128.292323537895	229.962090172990	1484.598213250760	1127.951403734187	239.086209992388	897.965857279876	1138.687925965955	807.457491400117	909.209154529443	876.837070381519	822.538945884411	
37	45.758000000000	884.910201357955	1016.894045610261	528.694467876870	1108.733432007310	1439.714327512476	382.180795767203	1173.165131426369	1369.359469834765	558.376088425943	1059.817925829042	1448.214955228968	711.481899539737	1045.346635696337	1498.257112830547	532.396469698919	1095.611081829577	945.371032684817	676.323269153133	1117.044926554883	964.873753527661	403.333132654400	1139.961336572600	742.778953603726	637.418429004419	1059.896432705675	633.412469031516	697.434756938666	1134.512584257178	581.706045337987	614.127967270645	1136.097127984702	495.936038269271	619.313521497777	1120.726685327799	734.184862818443	414.952471613280	1008.072440728611	631.822107720665	330.132265157450	1085.921105372670	544.020545090688	389.742214593708	1075.775617357210	472.940729384046	388.420528042907	1030.199917855462	411.882136591600	372.685658291941	916.893407031394	327.808728420773	309.543710090221	940.683259529876	199.152932283907	363.504553423899	1108.948645599542	406.879807863801	629.197280392130	1043.212510305462	304.582369181293	699.751870724313	1078.916857008795	208.166500564717	633.116430989001	941.658082769327	44.127614101229	621.684371204222	1116.225499761160	97.434231053697	638.415808465230	1033.029032607512	37.985035760512	686.353835405632	1238.933408202085	45.197473949761	652.000182237774	783.224771150078	64.169765498739	386.968429901276	858.956266439906	50.568418225843	309.936685169417	948.536523333755	101.440981568590	338.357138968537	1069.057325788864	37.939477551425	313.026690530027	1214.843840278604	1122.516469756368	236.119067179981	1473.856306297448	1104.121887190020	243.822679983464	905.144170200178	1137.694590171840	815.901998376843	922.124825542247	876.252121366961	831.355915972057	
38	45.778500000000	885.099142510858	1017.429123194066	535.575387069952	1107.052877154038	1439.601441546360	385.501152663059	1173.902893889140	1369.526494283341	561.016774748551	1062.546527897817	1448.490563621951	715.470373490695	1045.942375729398	1498.684054694082	536.309221423885	1097.380778033891	945.548235620667	680.662911385506	1115.696272623465	965.131059886966	407.220824279913	1139.650178479167	742.290967088485	641.109416988160	1058.858854545503	633.297533227320	701.050595014211	1132.558406450909	581.259211795083	617.214273765428	1133.506870605610	495.514650569217	621.900226516486	1121.123717622685	735.362538996373	417.638040885331	1008.484830398217	632.594205153737	333.432361485311	1088.315549872431	544.836609877960	391.245772715717	1078.808901935516	473.021993147475	389.132366200605	1031.809587584080	412.496057042793	373.671033822227	916.701894413790	330.453107603534	310.996045518108	939.590855627339	200.872711311769	363.330787256934	1106.133909537848	406.707085486569	631.226358761588	1040.234315329590	304.135031709968	701.171842632747	1075.481354348121	208.063390399293	633.890713495198	937.778882832264	44.111492585292	621.676472322335	1112.391861863178	97.344376076328	638.486990662811	1029.150158078656	37.954272699721	686.299534182681	1235.088605867564	44.883616551705	652.045266339855	780.232852106508	68.306926472882	386.634918359677	855.638791634850	52.730142006693	309.725417891233	946.251512317532	101.981569657089	337.755616313188	1065.214149626624	37.576669851918	313.024327390270	1203.939479011097	1116.851341571166	242.050802257377	1460.729219657663	1078.470773266954	248.669651756172	913.038991704917	1136.039575833476	823.970590380833	936.459373932170	875.135323532629	839.281465585389	
39	45.799000000000	885.078369971281	1017.786185498361	542.369568587770	1105.147632906642	1439.277637257585	388.682310322545	1174.455676876080	1369.468253825218	563.474139387221	1065.164982147021	1448.513816844209	719.291462667309	1046.422935228234	1498.943960072392	540.067393056892	1098.964174733785	945.554572517843	684.832195576509	1114.066220852889	965.215646071817	410.971615367713	1139.416066463701	741.806450469073	644.577317833349	1058.103154424076	633.068149836599	704.457679186029	1130.948132967124	580.802104013890	620.116845544878	1131.363962623184	494.980097165374	624.371182933103	1121.914666006104	736.702200894225	420.254905242629	1009.794457047134	633.118155662787	336.579015533940	1091.857479912954	545.694473519315	392.764280848643	1083.070830880987	472.960151084439	389.741620194482	1034.488287893300	412.962746178577	374.581662842525	917.411967112183	333.246418367431	312.434652891942	939.098864723164	202.705204954602	363.098393423799	1103.629096098482	406.426150133950	633.144484826984	1037.452281595338	303.664800060647	702.484045188166	1072.141332604351	207.898144894215	634.605520369502	933.840080450120	44.135577406430	621.642439832814	1108.498616428084	97.245658646568	638.531932915287	1025.203782984691	37.943146026215	686.232295407704	1231.169353417749	44.558126643139	652.084657119182	777.592574127420	73.054499506729	386.283965437542	852.530673485056	55.250441665411	309.495705129014	944.288913231606	102.585682873564	337.093119708210	1061.381968694926	37.097524626645	313.038691348163	1192.481966086530	1111.325053970784	247.831522245842	1444.862469802510	1051.291018333197	253.611971824815	921.689037279738	1133.683652896810	831.609448869719	952.304341093639	873.509350106488	846.332774555775	
